<svg width="32" height="32" viewBox="0 0 32 32" fill="none" xmlns="http://www.w3.org/2000/svg">
<g clip-path="url(#clip0_602_57)" filter="url(#filter0_d_602_57)">
<path d="M10.81 0.219C10.9506 0.0787966 11.141 4.21785e-05 11.3395 0L20.6605 0C20.859 4.21785e-05 21.0494 0.0787966 21.19 0.219L27.781 6.81C27.9212 6.95056 28 7.14097 28 7.3395V16.6605C28 16.859 27.9212 17.0494 27.781 17.19L21.19 23.781C21.0494 23.9212 20.859 24 20.6605 24H11.3395C11.141 24 10.9506 23.9212 10.81 23.781L4.219 17.19C4.0788 17.0494 4.00004 16.859 4 16.6605V7.3395C4.00004 7.14097 4.0788 6.95056 4.219 6.81L10.81 0.219ZM11.65 1.5L5.5 7.65V16.35L11.65 22.5H20.35L26.5 16.35V7.65L20.35 1.5H11.65Z" fill="#FAFAFB"/>
<path d="M10.969 6.96912C11.0387 6.89927 11.1214 6.84386 11.2125 6.80605C11.3037 6.76824 11.4013 6.74878 11.5 6.74878C11.5986 6.74878 11.6963 6.76824 11.7874 6.80605C11.8786 6.84386 11.9613 6.89927 12.031 6.96912L16 10.9396L19.969 6.96912C20.0387 6.89939 20.1215 6.84407 20.2126 6.80633C20.3037 6.7686 20.4014 6.74917 20.5 6.74917C20.5986 6.74917 20.6963 6.7686 20.7874 6.80633C20.8785 6.84407 20.9613 6.89939 21.031 6.96912C21.1007 7.03885 21.156 7.12164 21.1938 7.21274C21.2315 7.30385 21.2509 7.4015 21.2509 7.50012C21.2509 7.59874 21.2315 7.69639 21.1938 7.7875C21.156 7.8786 21.1007 7.96139 21.031 8.03112L17.0605 12.0001L21.031 15.9691C21.1007 16.0389 21.156 16.1216 21.1938 16.2127C21.2315 16.3039 21.2509 16.4015 21.2509 16.5001C21.2509 16.5987 21.2315 16.6964 21.1938 16.7875C21.156 16.8786 21.1007 16.9614 21.031 17.0311C20.9613 17.1009 20.8785 17.1562 20.7874 17.1939C20.6963 17.2316 20.5986 17.2511 20.5 17.2511C20.4014 17.2511 20.3037 17.2316 20.2126 17.1939C20.1215 17.1562 20.0387 17.1009 19.969 17.0311L16 13.0606L12.031 17.0311C11.9613 17.1009 11.8785 17.1562 11.7874 17.1939C11.6963 17.2316 11.5986 17.2511 11.5 17.2511C11.4014 17.2511 11.3037 17.2316 11.2126 17.1939C11.1215 17.1562 11.0387 17.1009 10.969 17.0311C10.8993 16.9614 10.844 16.8786 10.8062 16.7875C10.7685 16.6964 10.749 16.5987 10.749 16.5001C10.749 16.4015 10.7685 16.3039 10.8062 16.2127C10.844 16.1216 10.8993 16.0389 10.969 15.9691L14.9395 12.0001L10.969 8.03112C10.8992 7.96145 10.8437 7.87869 10.8059 7.78757C10.7681 7.69645 10.7487 7.59877 10.7487 7.50012C10.7487 7.40147 10.7681 7.30379 10.8059 7.21267C10.8437 7.12155 10.8992 7.03879 10.969 6.96912Z" fill="#FAFAFB"/>
</g>
<defs>
<filter id="filter0_d_602_57" x="0" y="0" width="32" height="32" filterUnits="userSpaceOnUse" color-interpolation-filters="sRGB">
<feFlood flood-opacity="0" result="BackgroundImageFix"/>
<feColorMatrix in="SourceAlpha" type="matrix" values="0 0 0 0 0 0 0 0 0 0 0 0 0 0 0 0 0 0 127 0" result="hardAlpha"/>
<feOffset dy="4"/>
<feGaussianBlur stdDeviation="2"/>
<feComposite in2="hardAlpha" operator="out"/>
<feColorMatrix type="matrix" values="0 0 0 0 0 0 0 0 0 0 0 0 0 0 0 0 0 0 0.25 0"/>
<feBlend mode="normal" in2="BackgroundImageFix" result="effect1_dropShadow_602_57"/>
<feBlend mode="normal" in="SourceGraphic" in2="effect1_dropShadow_602_57" result="shape"/>
</filter>
<clipPath id="clip0_602_57">
<rect width="24" height="24" fill="white" transform="translate(4)"/>
</clipPath>
</defs>
</svg>
